HIERARCHY
ROOT Hips
{
	OFFSET -14.64140 90.27770 -84.91600
	CHANNELS 6 Xposition Yposition Zposition Zrotation Xrotation Yrotation
	JOINT Spine
	{
		OFFSET 0.00000 13.20850 -1.60436
		CHANNELS 3 Zrotation Xrotation Yrotation
		JOINT Spine1
		{
			OFFSET 0.00000 8.61716 0.00000
			CHANNELS 3 Zrotation Xrotation Yrotation
			JOINT Spine2
			{
				OFFSET 0.00000 8.61717 0.00000
				CHANNELS 3 Zrotation Xrotation Yrotation
				JOINT Spine3
				{
					OFFSET 0.00000 8.61717 0.00000
					CHANNELS 3 Zrotation Xrotation Yrotation
					JOINT Neck
					{
						OFFSET 0.00000 11.07920 1.10792
						CHANNELS 3 Zrotation Xrotation Yrotation
						JOINT Neck1
						{
							OFFSET 0.00000 7.08032 0.00000
							CHANNELS 3 Zrotation Xrotation Yrotation
							JOINT Head
							{
								OFFSET 0.00000 7.08031 0.00000
								CHANNELS 3 Zrotation Xrotation Yrotation
								End site
								{
									OFFSET 0.00000 0.00000 0.00000
								}
							}
						}
					}
					JOINT RightShoulder
					{
						OFFSET -0.01000 7.91373 5.19711
						CHANNELS 3 Zrotation Xrotation Yrotation
						JOINT RightArm
						{
							OFFSET -18.41580 0.00000 0.00000
							CHANNELS 3 Zrotation Xrotation Yrotation
							JOINT RightForeArm
							{
								OFFSET -29.11090 0.00000 0.00000
								CHANNELS 3 Zrotation Xrotation Yrotation
								JOINT RightHand
								{
									OFFSET -24.65040 0.00000 0.00000
									CHANNELS 3 Zrotation Xrotation Yrotation
									JOINT RightHandThumb1
									{
										OFFSET -5.35114 -0.85590 3.97906
										CHANNELS 3 Zrotation Xrotation Yrotation
										JOINT RightHandThumb2
										{
											OFFSET -4.52789 0.00000 0.00000
											CHANNELS 3 Zrotation Xrotation Yrotation
											JOINT RightHandThumb3
											{
												OFFSET -2.46976 0.00000 0.00000
												CHANNELS 3 Zrotation Xrotation Yrotation
												End site
												{
													OFFSET 0.00000 0.00000 0.00000
												}
											}
										}
									}
									JOINT RightHandIndex1
									{
										OFFSET -14.26970 0.00000 2.88139
										CHANNELS 3 Zrotation Xrotation Yrotation
										JOINT RightHandIndex2
										{
											OFFSET -5.48836 0.00000 0.00000
											CHANNELS 3 Zrotation Xrotation Yrotation
											JOINT RightHandIndex3
											{
												OFFSET -3.01859 0.00000 0.00000
												CHANNELS 3 Zrotation Xrotation Yrotation
												End site
												{
													OFFSET 0.00000 0.00000 0.00000
												}
											}
										}
									}
									JOINT RightHandMiddle1
									{
										OFFSET -14.26970 0.00000 -0.09147
										CHANNELS 3 Zrotation Xrotation Yrotation
										JOINT RightHandMiddle2
										{
											OFFSET -6.17441 0.00000 0.00000
											CHANNELS 3 Zrotation Xrotation Yrotation
											JOINT RightHandMiddle3
											{
												OFFSET -3.56743 0.00000 0.00000
												CHANNELS 3 Zrotation Xrotation Yrotation
												End site
												{
													OFFSET 0.00000 0.00000 0.00000
												}
											}
										}
									}
									JOINT RightHandRing1
									{
										OFFSET -12.69180 0.00000 -3.06433
										CHANNELS 3 Zrotation Xrotation Yrotation
										JOINT RightHandRing2
										{
											OFFSET -5.62556 0.00000 0.00000
											CHANNELS 3 Zrotation Xrotation Yrotation
											JOINT RightHandRing3
											{
												OFFSET -3.56744 0.00000 0.00000
												CHANNELS 3 Zrotation Xrotation Yrotation
												End site
												{
													OFFSET 0.00000 0.00000 0.00000
												}
											}
										}
									}
									JOINT RightHandPinky1
									{
										OFFSET -11.11390 0.00000 -6.03719
										CHANNELS 3 Zrotation Xrotation Yrotation
										JOINT RightHandPinky2
										{
											OFFSET -4.52789 0.00000 0.00000
											CHANNELS 3 Zrotation Xrotation Yrotation
											JOINT RightHandPinky3
											{
												OFFSET -2.46976 0.00000 0.00000
												CHANNELS 3 Zrotation Xrotation Yrotation
												End site
												{
													OFFSET 0.00000 0.00000 0.00000
												}
											}
										}
									}
								}
							}
						}
					}
					JOINT LeftShoulder
					{
						OFFSET 0.01000 7.91373 5.19711
						CHANNELS 3 Zrotation Xrotation Yrotation
						JOINT LeftArm
						{
							OFFSET 18.41580 0.00000 0.00000
							CHANNELS 3 Zrotation Xrotation Yrotation
							JOINT LeftForeArm
							{
								OFFSET 29.11090 0.00000 0.00000
								CHANNELS 3 Zrotation Xrotation Yrotation
								JOINT LeftHand
								{
									OFFSET 24.65040 0.00000 0.00000
									CHANNELS 3 Zrotation Xrotation Yrotation
									JOINT LeftHandThumb1
									{
										OFFSET 5.35114 -0.85590 3.97906
										CHANNELS 3 Zrotation Xrotation Yrotation
										JOINT LeftHandThumb2
										{
											OFFSET 4.52789 0.00000 0.00000
											CHANNELS 3 Zrotation Xrotation Yrotation
											JOINT LeftHandThumb3
											{
												OFFSET 2.46977 0.00000 0.00000
												CHANNELS 3 Zrotation Xrotation Yrotation
												End site
												{
													OFFSET 0.00000 0.00000 0.00000
												}
											}
										}
									}
									JOINT LeftHandIndex1
									{
										OFFSET 14.26970 0.00000 2.88139
										CHANNELS 3 Zrotation Xrotation Yrotation
										JOINT LeftHandIndex2
										{
											OFFSET 5.48836 0.00000 0.00000
											CHANNELS 3 Zrotation Xrotation Yrotation
											JOINT LeftHandIndex3
											{
												OFFSET 3.01859 0.00000 0.00000
												CHANNELS 3 Zrotation Xrotation Yrotation
												End site
												{
													OFFSET 0.00000 0.00000 0.00000
												}
											}
										}
									}
									JOINT LeftHandMiddle1
									{
										OFFSET 14.26970 0.00000 -0.09147
										CHANNELS 3 Zrotation Xrotation Yrotation
										JOINT LeftHandMiddle2
										{
											OFFSET 6.17440 0.00000 0.00000
											CHANNELS 3 Zrotation Xrotation Yrotation
											JOINT LeftHandMiddle3
											{
												OFFSET 3.56744 0.00000 0.00000
												CHANNELS 3 Zrotation Xrotation Yrotation
												End site
												{
													OFFSET 0.00000 0.00000 0.00000
												}
											}
										}
									}
									JOINT LeftHandRing1
									{
										OFFSET 12.69180 0.00000 -3.06433
										CHANNELS 3 Zrotation Xrotation Yrotation
										JOINT LeftHandRing2
										{
											OFFSET 5.62556 0.00000 0.00000
											CHANNELS 3 Zrotation Xrotation Yrotation
											JOINT LeftHandRing3
											{
												OFFSET 3.56744 0.00000 0.00000
												CHANNELS 3 Zrotation Xrotation Yrotation
												End site
												{
													OFFSET 0.00000 0.00000 0.00000
												}
											}
										}
									}
									JOINT LeftHandPinky1
									{
										OFFSET 11.11390 0.00000 -6.03719
										CHANNELS 3 Zrotation Xrotation Yrotation
										JOINT LeftHandPinky2
										{
											OFFSET 4.52789 0.00000 0.00000
											CHANNELS 3 Zrotation Xrotation Yrotation
											JOINT LeftHandPinky3
											{
												OFFSET 2.46976 0.00000 0.00000
												CHANNELS 3 Zrotation Xrotation Yrotation
												End site
												{
													OFFSET 0.00000 0.00000 0.00000
												}
											}
										}
									}
								}
							}
						}
					}
					JOINT pCube4
					{
						OFFSET 0.00000 10.91090 1.10792
						CHANNELS 3 Zrotation Xrotation Yrotation
						End site
						{
							OFFSET 0.00000 0.00000 0.00000
						}
					}
				}
			}
		}
	}
	JOINT RightUpLeg
	{
		OFFSET -9.98441 0.00000 0.00000
		CHANNELS 3 Zrotation Xrotation Yrotation
		JOINT RightLeg
		{
			OFFSET 0.00000 -42.11790 0.00000
			CHANNELS 3 Zrotation Xrotation Yrotation
			JOINT RightFoot
			{
				OFFSET 0.00000 -45.00020 -0.00001
				CHANNELS 3 Zrotation Xrotation Yrotation
				JOINT RightForeFoot
				{
					OFFSET 0.00000 -3.74820 0.00000
					CHANNELS 3 Zrotation Xrotation Yrotation
					JOINT RightToeBase
					{
						OFFSET 0.00000 0.06325 14.43120
						CHANNELS 3 Zrotation Xrotation Yrotation
						End site
						{
							OFFSET 0.00000 0.00000 0.00000
						}
					}
				}
			}
		}
	}
	JOINT LeftUpLeg
	{
		OFFSET 9.98441 0.00000 0.00000
		CHANNELS 3 Zrotation Xrotation Yrotation
		JOINT LeftLeg
		{
			OFFSET 0.00000 -42.11800 0.00000
			CHANNELS 3 Zrotation Xrotation Yrotation
			JOINT LeftFoot
			{
				OFFSET 0.00000 -45.00070 0.00000
				CHANNELS 3 Zrotation Xrotation Yrotation
				JOINT LeftForeFoot
				{
					OFFSET 0.00000 -3.74824 0.00000
					CHANNELS 3 Zrotation Xrotation Yrotation
					JOINT LeftToeBase
					{
						OFFSET 0.00000 0.06325 14.43110
						CHANNELS 3 Zrotation Xrotation Yrotation
						End site
						{
							OFFSET 0.00000 0.00000 0.00000
						}
					}
				}
			}
		}
	}
}
MOTION
Frames: 4
Frame Time: 0.050000
-0.01992057140874121 0.04798250174237625 0.04244898300247714 0.03050561484688983 -0.024871139144328747 0.036451702154808224 -1.919229125651039 1.253829115203399 -1.0589986539901244 -0.9273768282741226 3.6760435960754725 0.3602482670387589 -1.1952820080227828 -1.4645324354045803 -1.076728544768213 0.6195756779708923 0.40824022117606384 -0.8455338098880929 0.6062335735465658 11.289557564594466 -2.095353114052729 0.3408264261262057 -0.9429807093832258 -6.09740734271503 1.2047213643206214 -16.48908582760937 -0.5003125975740088 -3.039833520996932 1.2997137827344318 -15.330866727734183 73.14372692932167 19.428009537797735 0.9253394792117394 1.4203871156701975 5.460593527651816 44.874224498470966 21.33464845777412 -0.10262143656387165 -4.35559226807685 4.567341368548837 -0.13458927101877124 -1.5570050011752352 0.02635584286044529 -0.04231175432155606 -56.20032967703429 0.0005829879667769538 0.013016211143241738 -56.1954242203255 -38.74508966099079 -0.0013312514015610037 0.04407880182898011 -0.03991338229614757 0.014491487000719528 -0.033188876892218486 0.004549309349057542 -0.02090060452095066 0.033950064572067645 -36.72028028835491 -0.0001554547694713608 -0.004018682508783599 0.01592898526677519 0.015158057126511785 -0.00044250530087014146 0.028722682904856568 -0.036867534808453124 -0.04183767504388437 -19.75974026056426 0.007879753440930818 -0.047813872752858706 0.01843760831112748 -0.009284522321527577 -0.021639866591967774 -0.027092286278817997 0.0429417081065935 -0.03021333823435607 24.03567925924942 -0.025454653758267193 -0.024034181094179395 28.88467025867235 -0.04460607011324583 -0.009609876332995976 28.892492940197332 0.030093018493564966 0.014597260901519343 2.9640449568143445 0.9474723744115338 13.003124604098478 -69.39450817642202 28.61019291654064 -5.120882931832045 4.157670519989128 -7.971805577671966 -49.08354409213951 -12.01710508537342 2.365858001011254 -0.16787504548800994 -0.4739453012637437 0.05352736345378951 -8.142898228879675 -0.016550989133985724 0.014750938499215526 44.576810652173066 0.0374215608903991 -0.015240089313339086 44.58938305623534 12.469130268313936 -0.04930538093253547 0.006024613992254652 0.045863283447866776 0.025534985096983476 0.04627539915067839 0.028666120062977953 0.04681174193610775 -0.04881100282683121 11.127493823586127 0.012113015394974117 -0.012200151374843794 -0.031531494078557626 -0.0006546453294510715 0.011490246114390536 0.047655832261143304 0.014447855506868328 -0.034242750838696205 4.731904850781835 -0.04495985012789441 -0.004421125236533519 -0.004152301346146208 -0.01927710163476957 0.045742787031971335 0.006809426582795935 -0.04647641764461507 -0.049025527160594745 -5.602923936372746 -0.040128528236583756 -0.04056810029628827 -6.719768675537363 0.014430218015509923 0.020000494278271243 -6.728140065705782 -0.02197159031347292 -0.018718669915192075 0.011979973241152611 0.021561567553524206 -0.012067237227422626 8.015748385324306 3.4454646133795777 -19.17810126246354 0.009284837318864023 10.351882227672954 0.0625792545464212 -5.609543289202845 -15.64706272369482 3.147091925989272 0.04189321091596021 0.02482913692771382 -0.016854304260315638 -0.007616774223297561 4.691353532981041 0.001271554539027192 12.49826391481838 -8.194072055494859 6.910821805745909 0.002669435194893899 46.39205011782675 -0.010210842680902 -4.321990057634581 -14.772940250830926 -3.806424284399347 -0.04921038231824761 -0.031217601077522254 -0.010817765077727736 0.00548764989991699 -10.74838682470422 -0.001546587066886474 
-0.010304254076962878 -0.007360826749023626 0.010673368734451924 0.048940810672772735 0.020395321347474255 -0.04746810211263315 -1.9835544369518505 1.248451215637971 -1.0684507848049176 -0.921874322235868 3.712201222199182 0.3916309177158929 -1.0992044786587107 -1.4307413422440014 -1.0349397633288147 0.5186047501818462 0.3303187490619513 -0.806511903918324 0.41534544123632655 11.190047789954015 -1.815575591856296 0.35631366278274607 -1.0199276430072355 -5.354113023844506 1.0397525134209478 -16.582145137966748 -0.4756418160075049 -3.001765506812346 1.255428658271781 -15.240861329057315 73.41969885242712 19.25063528686025 0.5884637367881942 1.7349430913878305 5.717802600926939 44.62089303579051 21.626479793772077 -0.11933742034370323 -4.2443936922195356 4.549596070901911 -0.12625519996157855 -1.544583162979637 -0.01419962707716927 -0.016455187348421562 -56.26896890365652 0.007695517328845373 0.022240951728402007 -56.2418988374031 -38.80856327079436 0.04251473261337181 -0.0015883341930951532 -0.027180075155391656 -0.04142753064971722 -0.023022613615099666 -0.015925816786965946 -0.030985011151026545 -0.015444520784353377 -36.65769893132273 0.0075419503768182185 0.0310182267772806 0.005156514438658663 -0.01765488295880038 0.02342942281242109 -0.026711537250473507 0.014281904466729067 -0.03632505908256298 -19.719935921956743 -0.03528147999294747 0.036688166279417234 0.027133379113801957 -0.012894224507776145 -0.013908625602987864 -0.03961646261493035 -0.04798453525797279 -0.008735357002197824 24.05345940975551 -0.019004406070590698 0.009900188373121586 28.87255447299771 0.04833225383416316 0.008259071505423486 28.82468954731424 -0.020862946498304755 -0.015527330336023625 3.2029526188900856 1.017523813463715 13.034969609517637 -69.3590909588393 28.681811767338143 -5.5138379440090395 3.273914953865013 -7.438076939705043 -49.05203206473497 -12.445131243705193 2.4285912412032653 -0.1707575123244639 -0.48155029033155744 0.09552406234693558 -8.142968930196329 0.04172404680186063 0.008959027284936152 44.61306441045644 -0.014013362161293065 -0.042734800471980854 44.56738820823551 12.474364568207342 0.027353769923636854 0.0323051705612561 0.03367906210348663 -0.03128581931750836 -0.001605227585269898 0.04403082077729013 0.020460254498543745 -0.00513581243028679 11.068372013659221 -0.04740050426436312 0.02799452398038316 0.02809714336064292 0.033146774785230225 0.013814467795711674 0.04201102861014076 0.022646174906639893 0.016160129058264087 4.761769695927172 -0.016527208207512026 -0.02908381688332383 0.03600249549287424 -0.0347999105957876 0.04634470841013857 0.016132590719267488 0.027105672258298477 -0.04707262440463656 -5.553699681172592 0.04272884675536395 -0.0453448514984262 -6.68634730307705 -0.014788515213933817 0.035260397907287584 -6.767880180013209 -0.02567581521733084 0.031381761311692326 -0.015296381351807296 -0.0140321214237789 0.010707139513431893 8.081157525057812 3.499140579696542 -19.24386089381925 0.03455396821867797 10.36155874346907 -0.02155308392780227 -5.63505321117829 -15.668025931696613 3.1935606192993085 0.026718519799695525 0.049527174496091134 -0.014217508146673564 -0.008912617403187592 4.6845144008909 0.020490698331586437 12.484571417117841 -8.276579456085301 6.869584155263541 0.0069139536669693274 46.41819310278526 0.00693303563352405 -4.34999442587176 -14.773656661836855 -3.831357698438413 -0.030416989022095876 0.009949862132951253 -0.03749330519567742 -0.03176765537462166 -10.700239041699852 -0.019260267375062104 
-0.03147393063813599 0.009613055708956078 0.0029015928382021654 -0.008696166492922206 -0.0207475424658502 0.024584794353397648 -1.9802192420309976 1.4485733445996387 -1.0246759798940095 -0.8870427865569224 3.7013131146666765 0.37170763294346054 -1.1765011783240429 -1.4283225698379622 -0.9630906626118181 0.4305113910299031 0.2648727618291149 -0.8098781912531849 0.36494253323931336 11.081715943453291 -1.5786641639722667 0.3158582539508376 -1.0713189984605067 -4.8258662104144765 0.9870313692757966 -16.620162603036185 -0.48059011693086506 -2.8684458997375946 1.2739063807694515 -15.0867989921569 73.46558557122297 18.815203851731187 0.7465874349094821 1.799524514329423 5.902919196041351 44.8712459188269 21.725905487481413 -0.04590465796201699 -4.129958505343864 4.5100046715216076 -0.1398427546672737 -1.5447448093240472 -0.04186320579842849 0.011289864981806019 -56.20637913814243 0.009884331696637423 -0.037087279617312806 -56.26550785032331 -38.72580097490919 -0.0391871570994519 -0.00719598051411256 -0.012126266329430188 0.016643730009799927 -0.01417221384500406 0.00933275515736618 -0.01938014866096648 -0.011084418737163945 -36.70314253333482 -0.043124389137769635 0.020602470796032203 -0.013217289341332497 0.02495752486306091 -0.019371723129570032 -0.049176206025356224 0.02473672656475953 -0.032700571773026856 -19.732168670240384 0.04977374748707499 0.022214923840314666 -0.039645271033373675 -0.022735062281130855 0.018001531596492502 0.036197915372596555 0.041586572514043844 0.03680174493955579 24.07780236038778 9.873185520549052e-05 0.04904994228615238 28.90337209443551 -0.025204465841381793 0.004697585495000232 28.842452820672314 -0.01786794695142151 -0.03867005437592821 3.264710687877664 1.0227742862219262 12.982165663860684 -69.18472526803264 28.399105427980874 -5.972545443454195 3.034820779622134 -7.055706502685154 -49.42955956804637 -12.73842289826196 2.3237399572020454 -0.15096991725947267 -0.4768036203812338 0.1018119855482324 -8.15038391028215 -0.027888719686944355 -0.02126060742481836 44.61174169754846 0.0038365010473964743 -0.008758683943636655 44.609142076658735 12.421598370791916 -0.03443034215110457 -0.02014470026885336 0.0037182762174716366 -0.0028561018556301763 -0.027541608091771433 -0.00038668385431279805 0.012379012706947634 0.01956709414392967 11.1068623511733 0.014011978994844234 0.007840224784166192 -0.041619162269313996 -0.010306405164738058 -0.03652825084867043 -0.0343550410901226 -0.019503947156992434 0.005856576436986035 4.8085830427212946 -0.014240745579002168 0.008755813425368209 -0.023155573117692726 -0.0068396861554918765 0.02143925351404115 0.04007909303848203 -0.02874649290109361 0.0004549458373513257 -5.626473771828619 -0.04983102187857945 -0.010278884691080443 -6.736572708490497 -0.03410526336475125 -0.044817281013095685 -6.7035967721944605 -0.020146238952530066 -0.03554600386394494 -0.014043427585985813 -0.014067779509988615 -0.04040237579343544 8.021985012572593 3.455548494501008 -19.214481850131016 -0.03364677633218187 10.392134612728801 0.029302333563364008 -5.619407887553208 -15.682788994521145 3.1816228659184635 0.037800895251798014 -0.019275733033509337 0.023032632564898566 0.01965747902559458 4.6948698659169175 0.03304620850350646 12.43364307629577 -8.189478241757842 6.923746823693891 -0.006018647814360716 46.398226209522996 0.03724384008766995 -4.371307848001647 -14.72658730262952 -3.8232401803220193 -0.02080444649659361 -0.03353046893536288 0.042889969275715104 -0.012353826891625874 -10.741947103739896 -0.008645682176867701 
-0.024760080852057983 0.021441284891171537 -0.018391497534271304 -0.042059438418757394 0.024950335896234258 0.013393828677877098 -1.9534628092721087 1.6857335618223097 -1.038850404283534 -0.8800340441150889 3.698767702338024 0.3530816386702572 -1.1441757563238022 -1.2963944804692566 -0.8628677905690911 0.3223732092813424 0.26298011449781933 -0.7921653391495954 0.23510780900675998 10.918007128610599 -1.4125931498727822 0.32746257753413643 -1.0940120559129003 -4.526988052749524 0.9492798048073228 -16.65849310743961 -0.4147008905063967 -2.6124422347454064 1.192522906913782 -14.988634388553288 73.32799815472833 18.10594384321647 1.1162870561581657 1.6444153912871013 6.1366333186874344 45.40411934763057 21.705027025424403 -0.04796579490988104 -4.175645295911689 4.567623815757078 -0.14140129383020242 -1.5432458310453383 -0.035142032906441474 -0.020198109894896746 -56.251088036382995 -0.02858742789466928 -0.04285112943177901 -56.26961992837979 -38.73984727433381 -0.03160817633046029 0.033341207923085495 -0.04406384204444336 0.015623553176371381 -0.04881063974448349 0.010304117804415909 -0.029396450419676163 0.018677317069833322 -36.68599119202135 -0.02639503695073385 0.0035491015168937715 -0.013798743149664453 -0.0033863919169062925 -0.025547306109513192 -0.01807553556815965 0.006536907608866387 0.020482329317723567 -19.786304534927215 -0.03133649872214093 0.0284264507122649 -0.024735721107441752 0.024553130969792378 -0.03974709053664065 0.02234917420725532 0.029746918736210635 -0.028929619104814286 24.030792665179664 -0.017409883653809077 -0.024513817200058293 28.879973505066598 -0.0028643076784411027 0.010376093634509309 28.850149924359567 0.011572048332542351 -0.037282008162793624 3.1642189557812452 0.972856990053122 12.94240379074578 -69.0588084584836 27.987004283304007 -6.381570827578678 3.182943557163354 -6.6070296548568965 -50.16824620248908 -12.943656316830952 2.3010730883163344 -0.21541900240820935 -0.4592154158404362 0.035113508599344416 -8.124969590257928 0.048123886607528026 0.0031464431515462144 44.56831176365814 0.028814987259169242 0.00400220867623611 44.59101264898868 12.433716386540013 -0.03233504623659163 -0.018750846089171828 -0.018765847098675865 0.018470431751665937 -0.002085399003578337 -0.03393047240499211 -0.021095249303426298 0.037736930736331276 11.112171009559896 -0.013329512960435755 0.023588343187333074 -0.038752254555132995 0.005843506388564615 -0.016076802446480357 0.020621579042936516 -0.0038343366763625045 -0.029761430274415614 4.751468172329617 0.028630213487384783 -0.01854467384290369 -0.00561008313005173 -0.002116884345115474 0.019174125743969535 -0.022783084418071614 -0.025510187828551467 0.01307527415084019 -5.607211806212902 0.036016370994446316 -0.0441666779380366 -6.690903489672812 -0.010560876081371552 -0.004113636084697854 -6.746235540282478 0.03777055712403445 0.018526950022274242 0.0037659139777134485 -0.004042828809948308 -0.003172665977902907 8.003841655272538 3.4624865853804327 -19.21630324424987 -0.04993966713885448 10.355040571246318 0.034455880207165515 -5.665194181453237 -15.697632257548976 3.210207411200446 -0.004161032371864942 -0.025105086001827842 -0.03000337171719901 -0.04742825496428329 4.72899534745635 -0.04697439023522841 12.410019497697641 -8.213729532610548 6.897899764381532 -0.022419118698444082 46.38841725562455 -0.011450942009650841 -4.369626278144933 -14.724779425262682 -3.785506686537451 -0.033369702546631054 0.04349930111837538 0.04790301832994333 -0.008834894813214709 -10.775210103163246 -0.009475152372798404 
